# This file uses centimeters as units for non-parametric coordinates.

mtllib conveyor_belt.mtl
g default
v -0.808074 1.994995 -1.680480
v 0.808074 1.994995 -1.680480
v -0.808074 2.111900 -1.700574
v 0.808074 2.111900 -1.700574
v -0.808074 2.043839 -1.796963
v 0.808074 2.043839 -1.796963
v -0.808074 2.106997 -1.763412
v 0.808074 2.106997 -1.763412
v -0.808074 1.999434 -1.777288
v 0.808074 1.999434 -1.777288
v -0.808074 2.084044 -1.793724
v 0.808074 2.084044 -1.793724
v -0.808074 2.111900 -0.958171
v 0.808074 2.111900 -0.958171
v -0.808074 1.994995 1.722308
v 0.808074 1.994995 1.722308
v -0.808074 2.111900 1.742403
v 0.808074 2.111900 1.742403
v -0.808074 2.043839 1.838792
v 0.808074 2.043839 1.838792
v -0.808074 2.106997 1.805241
v 0.808074 2.106997 1.805241
v -0.808074 1.999434 1.819117
v 0.808074 1.999434 1.819117
v -0.808074 2.084044 1.835553
v 0.808074 2.084044 1.835553
v -0.808074 2.111900 1.000000
v 0.808074 2.111900 1.000000
v 0.808074 1.994995 -0.958171
v -0.808074 1.994995 -0.958171
v 0.808074 1.994995 1.000000
v -0.808074 1.994995 1.000000
vt 0.145024 0.700158
vt 0.143350 0.597060
vt 0.161283 0.592407
vt 0.160349 0.695514
vt 0.144485 0.708895
vt 0.160951 0.704247
vt 0.129579 0.711065
vt 0.135790 0.713697
vt 0.700075 0.743198
vt 0.175872 0.706310
vt 0.475622 0.737146
vt 0.164100 0.708486
vt 0.176610 0.692870
vt 0.128744 0.697631
vt 0.137262 0.222030
vt 0.164683 0.217343
vt 0.163749 0.320450
vt 0.138936 0.325127
vt 0.136440 0.213314
vt 0.165443 0.208622
vt 0.121471 0.211630
vt 0.180400 0.206830
vt 0.701113 0.225734
vt 0.127593 0.208797
vt 0.476637 0.230886
vt 0.701102 0.231336
vt 0.180894 0.220281
vt 0.121073 0.225084
vt 0.177520 0.592554
vt 0.127116 0.597323
vt 0.179985 0.320597
vt 0.122701 0.325391
vt 0.204226 0.579634
vt 0.203089 0.679948
vt 0.428676 0.582178
vt 0.427539 0.682493
vt 0.207308 0.307683
vt 0.431759 0.310228
vt 0.208446 0.207369
vt 0.432896 0.209913
vt 0.700321 0.620450
vt 0.700867 0.348482
vt 0.475857 0.620000
vt 0.476402 0.348032
vt 0.168669 0.204441
vt 0.701091 0.236617
vt 0.133184 0.209157
vt 0.476627 0.236167
vt 0.701127 0.218988
vt 0.174257 0.204041
vt 0.476662 0.218538
vt 0.476649 0.225284
vt 0.701074 0.245371
vt 0.476609 0.244921
vt 0.701154 0.205529
vt 0.476689 0.205078
vt 0.475610 0.742748
vt 0.141366 0.713156
vt 0.169680 0.708986
vt 0.700086 0.737596
vt 0.475570 0.762953
vt 0.475597 0.749493
vt 0.700034 0.763403
vt 0.700061 0.749944
vt 0.475632 0.731865
vt 0.700097 0.732315
vt 0.475650 0.723111
vt 0.700114 0.723561
vn 0.000000 0.999981 -0.006089
vn 0.000000 1.000000 0.000000
vn 0.000000 1.000000 0.000000
vn 0.000000 0.999981 -0.006089
vn 0.000000 0.958078 -0.286509
vn 0.000000 0.958078 -0.286509
vn 0.000000 -0.922204 -0.386703
vn 0.000000 -0.190687 -0.981651
vn 0.000000 -0.190687 -0.981651
vn 0.000000 -0.922204 -0.386703
vn 0.000000 0.469136 -0.883126
vn 0.000000 0.469136 -0.883126
vn 0.000000 -0.998950 -0.045803
vn 0.000000 -0.998950 -0.045803
vn 0.000000 0.999981 0.006089
vn 0.000000 0.999981 0.006089
vn 0.000000 1.000000 0.000000
vn 0.000000 1.000000 0.000000
vn 0.000000 0.958078 0.286509
vn 0.000000 0.958078 0.286509
vn 0.000000 -0.922204 0.386703
vn 0.000000 -0.922204 0.386703
vn 0.000000 -0.190687 0.981651
vn 0.000000 -0.190687 0.981651
vn 0.000000 0.469136 0.883126
vn 0.000000 0.469136 0.883126
vn 0.000000 -0.998951 0.045803
vn 0.000000 -0.998951 0.045803
vn 0.000000 1.000000 0.000000
vn 0.000000 1.000000 0.000000
vn 0.000000 1.000000 0.000000
vn 0.000000 1.000000 0.000000
vn 0.000000 -1.000000 0.000000
vn 0.000000 -1.000000 0.000000
vn 0.000000 -1.000000 0.000000
vn 0.000000 -1.000000 0.000000
vn -1.000000 0.000000 0.000000
vn -1.000000 0.000000 0.000000
vn -1.000000 0.000000 0.000000
vn -1.000000 0.000000 0.000000
vn 0.000000 -1.000000 -0.000000
vn 0.000000 -1.000000 -0.000000
vn 0.000000 -1.000000 -0.000000
vn 0.000000 -1.000000 -0.000000
vn -1.000000 0.000000 0.000000
vn -1.000000 0.000000 0.000000
vn -1.000000 0.000000 0.000000
vn -1.000000 0.000000 0.000000
vn -1.000000 0.000001 0.000000
vn -1.000000 0.000001 0.000000
vn -1.000000 0.000001 0.000000
vn -1.000000 0.000001 0.000000
vn -1.000000 0.000001 -0.000000
vn -1.000000 0.000001 -0.000000
vn -1.000000 0.000001 -0.000000
vn -1.000000 0.000001 -0.000000
vn -1.000000 0.000000 0.000000
vn -1.000000 0.000000 0.000000
vn -1.000000 0.000000 0.000000
vn -1.000000 0.000000 0.000000
vn -1.000000 0.000000 0.000000
vn -1.000000 0.000000 0.000000
vn -1.000000 0.000000 0.000000
vn -1.000000 0.000000 0.000000
vn -1.000000 0.000001 0.000000
vn -1.000000 0.000001 0.000000
vn -1.000000 0.000001 0.000000
vn -1.000000 0.000001 0.000000
vn 1.000000 0.000000 -0.000000
vn 1.000000 0.000000 -0.000000
vn 1.000000 0.000000 -0.000000
vn 1.000000 0.000000 -0.000000
vn 1.000000 -0.000000 0.000000
vn 1.000000 -0.000000 0.000000
vn 1.000000 -0.000000 0.000000
vn 1.000000 -0.000000 0.000000
vn 1.000000 0.000000 0.000000
vn 1.000000 0.000000 0.000000
vn 1.000000 0.000000 0.000000
vn 1.000000 0.000000 0.000000
vn 1.000000 0.000000 0.000000
vn 1.000000 0.000000 0.000000
vn 1.000000 0.000000 0.000000
vn 1.000000 0.000000 0.000000
vn 1.000000 0.000001 0.000000
vn 1.000000 0.000001 0.000000
vn 1.000000 0.000001 0.000000
vn 1.000000 0.000001 0.000000
vn 1.000000 0.000000 0.000000
vn 1.000000 0.000000 0.000000
vn 1.000000 0.000000 0.000000
vn 1.000000 0.000000 0.000000
vn 1.000000 0.000001 0.000000
vn 1.000000 0.000001 0.000000
vn 1.000000 0.000001 0.000000
vn 1.000000 0.000001 0.000000
s 1
g belt
usemtl aiStandardSurface5SG
f 3/67/1 13/43/2 14/41/3 4/68/4
f 7/65/5 3/67/1 4/68/4 8/66/6
f 9/62/7 5/57/8 6/9/9 10/64/10
f 11/11/11 7/65/5 8/66/6 12/60/12
f 2/63/13 1/61/14 9/62/7 10/64/10
f 5/57/8 11/11/11 12/60/12 6/9/9
s 3
f 17/54/15 18/53/16 28/42/17 27/44/18
f 21/48/19 22/46/20 18/53/16 17/54/15
f 23/51/21 24/49/22 20/23/23 19/52/24
f 25/25/25 26/26/26 22/46/20 21/48/19
f 16/55/27 24/49/22 23/51/21 15/56/28
f 19/52/24 20/23/23 26/26/26 25/25/25
s off
f 14/41/29 13/43/30 27/44/31 28/42/32
s 5
f 1/39/33 2/40/34 29/38/35 30/37/36
s off
f 15/28/37 23/21/38 21/19/39 17/15/40
s 5
f 30/37/36 29/38/35 31/35/41 32/33/42
f 32/33/42 31/35/41 16/36/43 15/34/44
s off
f 27/18/45 13/2/46 30/30/47 32/32/48
f 17/15/49 27/18/50 32/32/51 15/28/52
f 13/2/53 3/1/54 1/14/55 30/30/56
f 3/1/57 7/5/58 9/7/59 1/14/60
f 19/24/61 25/47/62 21/19/63 23/21/64
f 11/58/65 5/8/66 9/7/67 7/5/68
f 4/4/69 14/3/70 29/29/71 2/13/72
f 8/6/73 4/4/74 2/13/75 10/10/76
f 6/59/77 12/12/78 8/6/79 10/10/80
f 14/3/81 28/17/82 31/31/83 29/29/84
f 28/17/85 18/16/86 16/27/87 31/31/88
f 24/22/89 16/27/90 18/16/91 22/20/92
f 26/45/93 20/50/94 24/22/95 22/20/96
