# This file uses centimeters as units for non-parametric coordinates.

mtllib conveyor_belt_new.mtl
g default
v -0.808074 1.994995 -1.680480
v 0.808074 1.994995 -1.680480
v -0.808074 2.111900 -1.700574
v 0.808074 2.111900 -1.700574
v -0.808074 2.043839 -1.796963
v 0.808074 2.043839 -1.796963
v -0.808074 2.106997 -1.763412
v 0.808074 2.106997 -1.763412
v -0.808074 1.999434 -1.777288
v 0.808074 1.999434 -1.777288
v -0.808074 2.084044 -1.793724
v 0.808074 2.084044 -1.793724
v -0.808074 2.111900 -0.958171
v 0.808074 2.111900 -0.958171
v -0.808074 1.994995 1.722308
v 0.808074 1.994995 1.722308
v -0.808074 2.111900 1.742403
v 0.808074 2.111900 1.742403
v -0.808074 2.043839 1.838792
v 0.808074 2.043839 1.838792
v -0.808074 2.106997 1.805241
v 0.808074 2.106997 1.805241
v -0.808074 1.999434 1.819117
v 0.808074 1.999434 1.819117
v -0.808074 2.084044 1.835553
v 0.808074 2.084044 1.835553
v -0.808074 2.111900 1.000000
v 0.808074 2.111900 1.000000
v 0.808074 1.994995 -0.958171
v -0.808074 1.994995 -0.958171
v 0.808074 1.994995 1.000000
v -0.808074 1.994995 1.000000
vt 0.668307 0.500267
vt 0.668505 0.401723
vt 0.883026 0.402153
vt 0.882828 0.500697
vt 0.668290 0.508633
vt 0.882812 0.509063
vt 0.668257 0.525480
vt 0.668269 0.519034
vt 0.882791 0.519464
vt 0.882778 0.525911
vt 0.668281 0.513680
vt 0.882802 0.514110
vt 0.882752 0.538774
vt 0.668231 0.538344
vt 0.669224 0.043259
vt 0.883746 0.043689
vt 0.883548 0.142233
vt 0.669026 0.141802
vt 0.669241 0.034893
vt 0.883762 0.035323
vt 0.669275 0.018045
vt 0.883797 0.018475
vt 0.883783 0.024922
vt 0.669262 0.024492
vt 0.669251 0.029846
vt 0.883773 0.030276
vt 0.883822 0.005612
vt 0.669300 0.005181
vt 0.882560 0.634651
vt 0.668038 0.634220
vt 0.121073 0.225084
vt 0.121471 0.211630
vt 0.136440 0.213314
vt 0.137262 0.222030
vt 0.882038 0.894571
vt 0.667517 0.894141
vt 0.881846 0.990448
vt 0.667325 0.990017
vt 0.138936 0.325127
vt 0.143350 0.597060
vt 0.127116 0.597323
vt 0.122701 0.325391
vt 0.145024 0.700158
vt 0.128744 0.697631
vt 0.144485 0.708895
vt 0.129579 0.711065
vt 0.127593 0.208797
vt 0.133184 0.209157
vt 0.141366 0.713156
vt 0.135790 0.713697
vt 0.160349 0.695514
vt 0.161283 0.592407
vt 0.177520 0.592554
vt 0.176610 0.692870
vt 0.160951 0.704247
vt 0.175872 0.706310
vt 0.169680 0.708986
vt 0.164100 0.708486
vt 0.163749 0.320450
vt 0.179985 0.320597
vt 0.164683 0.217343
vt 0.180894 0.220281
vt 0.180400 0.206830
vt 0.165443 0.208622
vt 0.168669 0.204441
vt 0.174257 0.204041
vn 0.000000 0.999981 -0.006089
vn 0.000000 1.000000 0.000000
vn 0.000000 1.000000 0.000000
vn 0.000000 0.999981 -0.006089
vn 0.000000 0.958078 -0.286509
vn 0.000000 0.999981 -0.006089
vn 0.000000 0.999981 -0.006089
vn 0.000000 0.958078 -0.286509
vn 0.000000 -0.922204 -0.386703
vn 0.000000 -0.190687 -0.981651
vn 0.000000 -0.190687 -0.981651
vn 0.000000 -0.922204 -0.386703
vn 0.000000 0.469136 -0.883126
vn 0.000000 0.958078 -0.286509
vn 0.000000 0.958078 -0.286509
vn 0.000000 0.469136 -0.883126
vn 0.000000 -0.998950 -0.045803
vn 0.000000 -0.998950 -0.045803
vn 0.000000 -0.922204 -0.386703
vn 0.000000 -0.922204 -0.386703
vn 0.000000 -0.190687 -0.981651
vn 0.000000 0.469136 -0.883126
vn 0.000000 0.469136 -0.883126
vn 0.000000 -0.190687 -0.981651
vn 0.000000 0.999981 0.006089
vn 0.000000 0.999981 0.006089
vn 0.000000 1.000000 0.000000
vn 0.000000 1.000000 0.000000
vn 0.000000 0.958078 0.286509
vn 0.000000 0.958078 0.286509
vn 0.000000 0.999981 0.006089
vn 0.000000 0.999981 0.006089
vn 0.000000 -0.922204 0.386703
vn 0.000000 -0.922204 0.386703
vn 0.000000 -0.190687 0.981651
vn 0.000000 -0.190687 0.981651
vn 0.000000 0.469136 0.883126
vn 0.000000 0.469136 0.883126
vn 0.000000 0.958078 0.286509
vn 0.000000 0.958078 0.286509
vn 0.000000 -0.998951 0.045803
vn 0.000000 -0.922204 0.386703
vn 0.000000 -0.922204 0.386703
vn 0.000000 -0.998951 0.045803
vn 0.000000 -0.190687 0.981651
vn 0.000000 -0.190687 0.981651
vn 0.000000 0.469136 0.883126
vn 0.000000 0.469136 0.883126
vn 0.000000 1.000000 0.000000
vn 0.000000 1.000000 0.000000
vn 0.000000 1.000000 0.000000
vn 0.000000 1.000000 0.000000
vn 0.000000 -1.000000 0.000000
vn 0.000000 -1.000000 0.000000
vn 0.000000 -1.000000 0.000000
vn 0.000000 -1.000000 0.000000
vn -1.000000 0.000000 0.000000
vn -1.000000 0.000000 0.000000
vn -1.000000 0.000000 0.000000
vn -1.000000 0.000000 0.000000
vn 0.000000 -1.000000 0.000000
vn 0.000000 -1.000000 0.000000
vn 0.000000 -1.000000 0.000000
vn 0.000000 -1.000000 0.000000
vn 0.000000 -1.000000 0.000000
vn 0.000000 -1.000000 0.000000
vn 0.000000 -1.000000 0.000000
vn 0.000000 -1.000000 0.000000
vn -1.000000 0.000000 0.000000
vn -1.000000 0.000000 0.000000
vn -1.000000 0.000000 0.000000
vn -1.000000 0.000000 0.000000
vn -1.000000 0.000001 0.000000
vn -1.000000 0.000001 0.000000
vn -1.000000 0.000001 0.000000
vn -1.000000 0.000001 0.000000
vn -1.000000 0.000001 -0.000000
vn -1.000000 0.000001 -0.000000
vn -1.000000 0.000001 -0.000000
vn -1.000000 0.000001 -0.000000
vn -1.000000 0.000000 0.000000
vn -1.000000 0.000000 0.000000
vn -1.000000 0.000000 0.000000
vn -1.000000 0.000000 0.000000
vn -1.000000 0.000000 0.000000
vn -1.000000 0.000000 0.000000
vn -1.000000 0.000000 0.000000
vn -1.000000 0.000000 0.000000
vn -1.000000 0.000001 0.000000
vn -1.000000 0.000001 0.000000
vn -1.000000 0.000001 0.000000
vn -1.000000 0.000001 0.000000
vn 1.000000 0.000000 0.000000
vn 1.000000 0.000000 0.000000
vn 1.000000 0.000000 0.000000
vn 1.000000 0.000000 0.000000
vn 1.000000 -0.000000 0.000000
vn 1.000000 -0.000000 0.000000
vn 1.000000 -0.000000 0.000000
vn 1.000000 -0.000000 0.000000
vn 1.000000 0.000000 0.000000
vn 1.000000 0.000000 0.000000
vn 1.000000 0.000000 0.000000
vn 1.000000 0.000000 0.000000
vn 1.000000 0.000000 0.000000
vn 1.000000 0.000000 0.000000
vn 1.000000 0.000000 0.000000
vn 1.000000 0.000000 0.000000
vn 1.000000 0.000001 0.000000
vn 1.000000 0.000001 0.000000
vn 1.000000 0.000001 0.000000
vn 1.000000 0.000001 0.000000
vn 1.000000 0.000000 0.000000
vn 1.000000 0.000000 0.000000
vn 1.000000 0.000000 0.000000
vn 1.000000 0.000000 0.000000
vn 1.000000 0.000001 0.000000
vn 1.000000 0.000001 0.000000
vn 1.000000 0.000001 0.000000
vn 1.000000 0.000001 0.000000
s off
g conveyor_belt:belt
usemtl aiStandardSurface1SG
f 3/1/1 13/2/2 14/3/3 4/4/4
f 7/5/5 3/1/6 4/4/7 8/6/8
f 9/7/9 5/8/10 6/9/11 10/10/12
f 11/11/13 7/5/14 8/6/15 12/12/16
f 2/13/17 1/14/18 9/7/19 10/10/20
f 5/8/21 11/11/22 12/12/23 6/9/24
f 17/15/25 18/16/26 28/17/27 27/18/28
f 21/19/29 22/20/30 18/16/31 17/15/32
f 23/21/33 24/22/34 20/23/35 19/24/36
f 25/25/37 26/26/38 22/20/39 21/19/40
f 16/27/41 24/22/42 23/21/43 15/28/44
f 19/24/45 20/23/46 26/26/47 25/25/48
f 14/3/49 13/2/50 27/18/51 28/17/52
f 1/14/53 2/13/54 29/29/55 30/30/56
f 15/31/57 23/32/58 21/33/59 17/34/60
f 30/30/61 29/29/62 31/35/63 32/36/64
f 32/36/65 31/35/66 16/37/67 15/38/68
f 27/39/69 13/40/70 30/41/71 32/42/72
f 17/34/73 27/39/74 32/42/75 15/31/76
f 13/40/77 3/43/78 1/44/79 30/41/80
f 3/43/81 7/45/82 9/46/83 1/44/84
f 19/47/85 25/48/86 21/33/87 23/32/88
f 11/49/89 5/50/90 9/46/91 7/45/92
f 4/51/93 14/52/94 29/53/95 2/54/96
f 8/55/97 4/51/98 2/54/99 10/56/100
f 6/57/101 12/58/102 8/55/103 10/56/104
f 14/52/105 28/59/106 31/60/107 29/53/108
f 28/59/109 18/61/110 16/62/111 31/60/112
f 24/63/113 16/62/114 18/61/115 22/64/116
f 26/65/117 20/66/118 24/63/119 22/64/120
