# This file uses centimeters as units for non-parametric coordinates.

mtllib cross_beam.mtl
g default
v -8.576491 17.901720 3.987515
v -7.657456 17.901720 3.987515
v -8.576491 17.096855 3.987515
v -7.657456 17.096855 3.987515
v -8.576491 17.901720 -5.604204
v -8.576491 17.096855 -5.604204
v -8.576491 17.096855 -6.424259
v -8.576491 17.901720 -6.424259
v -7.657456 17.901720 -5.604204
v -7.657456 17.096855 -5.604204
v -7.657456 17.096855 -6.424259
v -7.657456 17.901720 -6.424259
v -8.576491 9.647299 3.994481
v -7.657456 9.647299 3.994481
v -8.576491 8.975330 3.980548
v -7.657456 8.975330 3.980548
v -8.576491 8.975330 -5.604204
v -8.576491 8.975330 -6.424259
v -7.657456 8.975330 -5.604204
v -7.657456 8.975330 -6.424259
v -8.576491 13.369661 -0.798262
v -7.657456 13.369661 -0.798262
v -8.576491 13.033970 -1.215650
v -8.576491 13.033970 -0.365413
v -7.657456 13.033970 -0.365413
v -7.657456 13.033970 -1.215650
v -8.576491 12.704363 -0.793095
v -7.657456 12.704363 -0.793095
v -7.657456 16.427100 3.987515
v -8.576491 16.427100 3.987515
vt 0.750000 0.375000
vt 0.250000 0.375000
vt 0.689228 0.332468
vt 0.125000 0.250000
vt 0.125000 0.000000
vt 0.125000 0.000000
vt 0.125000 0.250000
vt 0.125000 0.000000
vt 0.125000 0.250000
vt 0.125000 0.250000
vt 0.312797 0.331455
vt 0.125000 0.000000
vt 0.607815 0.229548
vt 0.337925 0.229751
vt 0.750000 0.375000
vt 0.125000 0.250000
vt 0.125000 0.250000
vt 0.125000 0.250000
vt 0.250000 0.375000
vt 0.125000 0.250000
vt 0.250065 0.250131
vt 0.375131 0.250131
vt 0.354464 0.114732
vt 0.500196 0.125065
vt 0.239732 0.114732
vt 0.250065 0.125065
vt 0.125000 0.135211
vt 0.375131 0.125065
vt 0.260211 0.270423
vt 0.395423 0.270423
vt 0.125000 0.125065
vt 0.530634 0.135211
vt 0.583810 0.020617
vt 0.354405 0.020617
vt 0.349583 0.274741
vt 0.628767 0.275708
vt 0.000000 0.000000
vt 1.000000 0.000000
vt 0.999957 1.132579
vt 0.000033 1.132554
vn 1.000000 0.000000 0.000000
vn 1.000000 0.000000 0.000000
vn 1.000000 0.000000 0.000000
vn 1.000000 0.000000 0.000000
vn 0.000000 0.000000 -1.000000
vn 0.000000 0.000000 -1.000000
vn 0.000000 0.000000 -1.000000
vn 0.000000 0.000000 -1.000000
vn 0.000000 1.000000 0.000000
vn 0.000000 1.000000 0.000000
vn 0.000000 1.000000 0.000000
vn 0.000000 1.000000 0.000000
vn 1.000000 0.000000 0.000000
vn 1.000000 0.000000 0.000000
vn 1.000000 0.000000 0.000000
vn 1.000000 0.000000 0.000000
vn 0.000000 -1.000000 0.000000
vn 0.000000 -1.000000 0.000000
vn 0.000000 -1.000000 0.000000
vn 0.000000 -1.000000 0.000000
vn -1.000000 0.000000 0.000000
vn -1.000000 0.000000 0.000000
vn -1.000000 0.000000 0.000000
vn -1.000000 0.000000 0.000000
vn 0.000000 1.000000 0.000000
vn 0.000000 1.000000 0.000000
vn 0.000000 1.000000 0.000000
vn 0.000000 1.000000 0.000000
vn 0.000000 -0.788490 -0.615048
vn 0.000000 -0.788490 -0.615048
vn 0.000000 -0.788490 -0.615048
vn 0.000000 -0.788490 -0.615048
vn 1.000000 0.000000 0.000000
vn 1.000000 0.000000 0.000000
vn 1.000000 0.000000 0.000000
vn 1.000000 0.000000 0.000000
vn 0.000000 0.790209 0.612838
vn 0.000000 0.790209 0.612838
vn 0.000000 0.790209 0.612838
vn 0.000000 0.790209 0.612838
vn -1.000000 -0.000000 0.000000
vn -1.000000 -0.000000 0.000000
vn -1.000000 -0.000000 0.000000
vn -1.000000 -0.000000 0.000000
vn 0.000000 0.789735 0.613449
vn 0.000000 0.789735 0.613449
vn 0.000000 0.789735 0.613449
vn 0.000000 0.789735 0.613449
vn 0.000000 -0.788054 -0.615606
vn 0.000000 -0.788054 -0.615606
vn 0.000000 -0.788054 -0.615606
vn 0.000000 -0.788054 -0.615606
vn -1.000000 0.000000 0.000000
vn -1.000000 0.000000 0.000000
vn -1.000000 0.000000 0.000000
vn -1.000000 0.000000 0.000000
vn 0.000000 -0.790381 0.612615
vn 0.000000 -0.790381 0.612615
vn 0.000000 -0.790381 0.612615
vn 0.000000 -0.790381 0.612615
vn 1.000000 0.000000 0.000000
vn 1.000000 0.000000 0.000000
vn 1.000000 0.000000 0.000000
vn 1.000000 0.000000 0.000000
vn 0.000000 0.788802 -0.614648
vn 0.000000 0.788802 -0.614648
vn 0.000000 0.788802 -0.614648
vn 0.000000 0.788802 -0.614648
vn 0.000000 -0.788692 0.614789
vn 0.000000 -0.788692 0.614789
vn 0.000000 -0.788692 0.614789
vn 0.000000 -0.788692 0.614789
vn -1.000000 -0.000000 0.000000
vn -1.000000 -0.000000 0.000000
vn -1.000000 -0.000000 0.000000
vn -1.000000 -0.000000 0.000000
vn 0.000000 0.788959 -0.614446
vn 0.000000 0.788959 -0.614446
vn 0.000000 0.788959 -0.614446
vn 0.000000 0.788959 -0.614446
vn 1.000000 0.000000 0.000000
vn 1.000000 0.000000 0.000000
vn 1.000000 0.000000 0.000000
vn 1.000000 0.000000 0.000000
vn 1.000000 0.000000 0.000000
vn 1.000000 0.000000 0.000000
vn 1.000000 0.000000 0.000000
vn 1.000000 0.000000 0.000000
vn -1.000000 -0.000001 0.000000
vn -1.000000 -0.000001 0.000000
vn -1.000000 -0.000001 0.000000
vn -1.000000 -0.000001 0.000000
vn -1.000000 0.000000 0.000000
vn -1.000000 0.000000 0.000000
vn -1.000000 0.000000 0.000000
vn -1.000000 0.000000 0.000000
vn 0.000000 -1.000000 0.000000
vn 0.000000 -1.000000 0.000000
vn 0.000000 -1.000000 0.000000
vn 0.000000 -1.000000 0.000000
vn 0.000000 -0.020731 0.999785
vn 0.000000 -0.020731 0.999785
vn 0.000000 -0.020731 0.999785
vn 0.000000 -0.020731 0.999785
vn 0.000000 0.000000 1.000000
vn 0.000000 0.000000 1.000000
vn 0.000000 0.000000 1.000000
vn 0.000000 0.000000 1.000000
vn 0.000000 0.000000 1.000000
vn 0.000000 0.000000 1.000000
vn 0.000000 0.000000 1.000000
vn 0.000000 0.000000 1.000000
s off
g polySurface1 pCube12 group2 group4
usemtl initialShadingGroup
f 9/4/1 10/5/2 11/6/3 12/7/4
f 7/8/5 8/9/6 12/7/7 11/6/8
f 8/9/9 5/10/10 9/4/11 12/7/12
f 2/1/13 4/3/14 10/5/15 9/4/16
f 4/3/17 3/11/18 6/12/19 10/5/20
f 3/11/21 1/2/22 5/10/23 6/12/24
f 1/2/25 2/1/26 9/4/27 5/10/28
f 23/21/29 7/8/30 11/6/31 26/22/32
s 1
f 22/23/33 26/24/34 11/6/35 10/5/36
s off
f 10/5/37 6/12/38 21/25/39 22/23/40
s 2
f 13/14/41 24/26/42 27/27/43 15/19/44
s off
f 25/28/45 24/26/46 13/14/47 14/13/48
f 15/19/49 27/29/50 28/30/51 16/15/52
f 18/18/53 17/20/54 27/27/55 23/31/56
f 17/20/57 19/16/58 28/30/59 27/29/60
f 19/16/61 20/17/62 26/24/63 28/32/64
f 20/17/65 18/18/66 23/21/67 26/22/68
f 29/33/69 30/34/70 24/26/71 25/28/72
f 30/34/73 3/35/74 21/25/75 24/26/76
f 3/35/77 4/36/78 22/23/79 21/25/80
f 4/36/81 29/33/82 25/28/83 22/23/84
s 1
f 28/32/85 26/24/34 22/23/33 25/28/86
f 28/32/85 25/28/86 14/13/87 16/15/88
s 2
f 23/31/89 21/25/90 6/12/91 7/8/92
f 24/26/42 21/25/90 23/31/89 27/27/43
s off
f 6/12/93 5/10/94 8/9/95 7/8/96
f 17/20/97 18/18/98 20/17/99 19/16/100
f 14/13/101 13/14/102 15/19/103 16/15/104
f 2/1/105 1/2/106 3/11/107 4/3/108
f 30/37/109 29/38/110 4/39/111 3/40/112
