# This file uses centimeters as units for non-parametric coordinates.

mtllib recycling_tank.mtl
g default
v -9.213764 11.087985 -2.295597
v -9.882823 11.087985 -3.608699
v -10.924906 11.087985 -4.650782
v -12.238008 11.087985 -5.319840
v -13.693592 11.087985 -5.550382
v -15.149176 11.087985 -5.319840
v -16.462277 11.087985 -4.650781
v -17.504360 11.087985 -3.608698
v -18.173417 11.087985 -2.295596
v -18.403960 11.087985 -0.840013
v -18.173417 11.087985 0.615571
v -17.504360 11.087985 1.928672
v -16.462277 11.087985 2.970754
v -15.149176 11.087985 3.639813
v -13.693592 11.087985 3.870354
v -12.238009 11.087985 3.639813
v -10.924908 11.087985 2.970754
v -9.882825 11.087985 1.928672
v -9.213767 11.087985 0.615571
v -8.983225 11.087985 -0.840013
v -9.213764 20.508718 -2.295597
v -9.882823 20.508718 -3.608699
v -10.924906 20.508718 -4.650782
v -12.238008 20.508718 -5.319840
v -13.693592 20.508718 -5.550382
v -15.149176 20.508718 -5.319840
v -16.462277 20.508718 -4.650781
v -17.504360 20.508718 -3.608698
v -18.173417 20.508718 -2.295596
v -18.403960 20.508718 -0.840013
v -18.173417 20.508718 0.615571
v -17.504360 20.508718 1.928672
v -16.462277 20.508718 2.970754
v -15.149176 20.508718 3.639813
v -13.693592 20.508718 3.870354
v -12.238009 20.508718 3.639813
v -10.924908 20.508718 2.970754
v -9.882825 20.508718 1.928672
v -9.213767 20.508718 0.615571
v -8.983225 20.508718 -0.840013
v -13.693592 20.508718 -0.840013
v -12.573635 6.619614 -1.203909
v -12.740900 6.619614 -1.532184
v -13.001420 6.619614 -1.792705
v -13.329696 6.619614 -1.959970
v -13.693592 6.619614 -2.017605
v -14.057488 6.619614 -1.959970
v -14.385764 6.619614 -1.792705
v -14.646284 6.619614 -1.532184
v -14.813548 6.619614 -1.203909
v -14.871184 6.619614 -0.840013
v -14.813548 6.619614 -0.476117
v -14.646284 6.619614 -0.147842
v -14.385763 6.619614 0.112679
v -14.057488 6.619614 0.279944
v -13.693592 6.619614 0.337579
v -13.329696 6.619614 0.279944
v -13.001421 6.619614 0.112679
v -12.740900 6.619614 -0.147842
v -12.573636 6.619614 -0.476117
v -12.516001 6.619614 -0.840013
v -13.693592 6.619614 -0.840013
vt 0.648603 0.107966
vt 0.626409 0.064408
vt 0.591842 0.029841
vt 0.548284 0.007647
vt 0.500000 -0.000000
vt 0.451716 0.007647
vt 0.408159 0.029841
vt 0.373591 0.064409
vt 0.351397 0.107966
vt 0.343750 0.156250
vt 0.351397 0.204534
vt 0.373591 0.248091
vt 0.408159 0.282659
vt 0.451716 0.304853
vt 0.500000 0.312500
vt 0.548284 0.304853
vt 0.591841 0.282659
vt 0.626409 0.248091
vt 0.648603 0.204534
vt 0.656250 0.156250
vt 0.375000 0.312500
vt 0.387500 0.312500
vt 0.400000 0.312500
vt 0.412500 0.312500
vt 0.425000 0.312500
vt 0.437500 0.312500
vt 0.450000 0.312500
vt 0.462500 0.312500
vt 0.475000 0.312500
vt 0.487500 0.312500
vt 0.500000 0.312500
vt 0.512500 0.312500
vt 0.525000 0.312500
vt 0.537500 0.312500
vt 0.550000 0.312500
vt 0.562500 0.312500
vt 0.575000 0.312500
vt 0.587500 0.312500
vt 0.600000 0.312500
vt 0.612500 0.312500
vt 0.625000 0.312500
vt 0.375000 0.688440
vt 0.387500 0.688440
vt 0.400000 0.688440
vt 0.412500 0.688440
vt 0.425000 0.688440
vt 0.437500 0.688440
vt 0.450000 0.688440
vt 0.462500 0.688440
vt 0.475000 0.688440
vt 0.487500 0.688440
vt 0.500000 0.688440
vt 0.512500 0.688440
vt 0.525000 0.688440
vt 0.537500 0.688440
vt 0.550000 0.688440
vt 0.562500 0.688440
vt 0.575000 0.688440
vt 0.587500 0.688440
vt 0.600000 0.688440
vt 0.612500 0.688440
vt 0.625000 0.688440
vt 0.648603 0.795466
vt 0.626409 0.751908
vt 0.591842 0.717341
vt 0.548284 0.695147
vt 0.500000 0.687500
vt 0.451716 0.695147
vt 0.408159 0.717341
vt 0.373591 0.751909
vt 0.351397 0.795466
vt 0.343750 0.843750
vt 0.351397 0.892034
vt 0.373591 0.935591
vt 0.408159 0.970159
vt 0.451716 0.992353
vt 0.500000 1.000000
vt 0.548284 0.992353
vt 0.591841 0.970159
vt 0.626409 0.935591
vt 0.648603 0.892034
vt 0.656250 0.843750
vt 0.500000 0.837500
vt 0.574301 0.128983
vt 0.563205 0.107204
vt 0.545921 0.089921
vt 0.524142 0.078824
vt 0.500000 0.075000
vt 0.475858 0.078824
vt 0.454079 0.089921
vt 0.436796 0.107204
vt 0.425699 0.128983
vt 0.421875 0.153125
vt 0.425699 0.177267
vt 0.436796 0.199046
vt 0.454079 0.216329
vt 0.475858 0.227426
vt 0.500000 0.231250
vt 0.524142 0.227426
vt 0.545921 0.216329
vt 0.563204 0.199046
vt 0.574301 0.177267
vt 0.578125 0.153125
vt 0.000000 0.000000
vt 1.000000 0.000000
vt 0.500000 1.000000
vt 0.000000 0.000000
vt 1.000000 0.000000
vt 0.500000 1.000000
vt 0.000000 0.000000
vt 1.000000 0.000000
vt 0.500000 1.000000
vt 0.000000 0.000000
vt 1.000000 0.000000
vt 0.500000 1.000000
vt 0.000000 0.000000
vt 1.000000 0.000000
vt 0.500000 1.000000
vt 0.000000 0.000000
vt 1.000000 0.000000
vt 0.500000 1.000000
vt 0.000000 0.000000
vt 1.000000 0.000000
vt 0.500000 1.000000
vt 0.000000 0.000000
vt 1.000000 0.000000
vt 0.500000 1.000000
vt 0.000000 0.000000
vt 1.000000 0.000000
vt 0.500000 1.000000
vt 0.000000 0.000000
vt 1.000000 0.000000
vt 0.500000 1.000000
vt 0.000000 0.000000
vt 1.000000 0.000000
vt 0.500000 1.000000
vt 0.000000 0.000000
vt 1.000000 0.000000
vt 0.500000 1.000000
vt 0.000000 0.000000
vt 1.000000 0.000000
vt 0.500000 1.000000
vt 0.000000 0.000000
vt 1.000000 0.000000
vt 0.500000 1.000000
vt 0.000000 0.000000
vt 1.000000 0.000000
vt 0.500000 1.000000
vt 0.000000 0.000000
vt 1.000000 0.000000
vt 0.500000 1.000000
vt 0.000000 0.000000
vt 1.000000 0.000000
vt 0.500000 1.000000
vt 0.000000 0.000000
vt 1.000000 0.000000
vt 0.500000 1.000000
vt 0.000000 0.000000
vt 1.000000 0.000000
vt 0.500000 1.000000
vt 0.000000 0.000000
vt 1.000000 0.000000
vt 0.500000 1.000000
vn 0.951057 0.000000 -0.309016
vn 0.809017 0.000000 -0.587785
vn 0.809017 0.000000 -0.587785
vn 0.951057 0.000000 -0.309016
vn 0.587785 0.000000 -0.809017
vn 0.587785 0.000000 -0.809017
vn 0.309017 0.000000 -0.951057
vn 0.309017 0.000000 -0.951057
vn -0.000000 0.000000 -1.000000
vn -0.000000 0.000000 -1.000000
vn -0.309017 0.000000 -0.951056
vn -0.309017 0.000000 -0.951056
vn -0.587786 0.000000 -0.809017
vn -0.587786 0.000000 -0.809017
vn -0.809017 0.000000 -0.587785
vn -0.809017 0.000000 -0.587785
vn -0.951057 0.000000 -0.309017
vn -0.951057 0.000000 -0.309017
vn -1.000000 0.000000 0.000000
vn -1.000000 0.000000 0.000000
vn -0.951057 0.000000 0.309017
vn -0.951057 0.000000 0.309017
vn -0.809017 0.000000 0.587785
vn -0.809017 0.000000 0.587785
vn -0.587785 0.000000 0.809017
vn -0.587785 0.000000 0.809017
vn -0.309017 0.000000 0.951056
vn -0.309017 0.000000 0.951056
vn 0.000000 0.000000 1.000000
vn 0.000000 0.000000 1.000000
vn 0.309017 0.000000 0.951057
vn 0.309017 0.000000 0.951057
vn 0.587785 0.000000 0.809017
vn 0.587785 0.000000 0.809017
vn 0.809017 0.000000 0.587785
vn 0.809017 0.000000 0.587785
vn 0.951057 0.000000 0.309017
vn 0.951057 0.000000 0.309017
vn 1.000000 0.000000 0.000001
vn 1.000000 0.000000 0.000001
vn 0.000000 1.000000 0.000000
vn 0.000000 1.000000 0.000000
vn 0.000000 1.000000 0.000000
vn 0.000000 1.000000 0.000000
vn 0.000000 1.000000 0.000000
vn 0.000000 1.000000 0.000000
vn 0.000000 1.000000 0.000000
vn 0.000000 1.000000 0.000000
vn 0.000000 1.000000 0.000000
vn 0.000000 1.000000 0.000000
vn 0.000000 1.000000 0.000000
vn 0.000000 1.000000 0.000000
vn 0.000000 1.000000 0.000000
vn 0.000000 1.000000 0.000000
vn 0.000000 1.000000 0.000000
vn 0.000000 1.000000 0.000000
vn 0.000000 1.000000 0.000000
vn 0.000000 1.000000 0.000000
vn 0.000000 1.000000 0.000000
vn 0.000000 1.000000 0.000000
vn 0.000000 1.000000 0.000000
vn 0.784446 -0.620197 0.000001
vn 0.746052 -0.620197 0.242407
vn 0.746052 -0.620197 0.242407
vn 0.784446 -0.620197 0.000001
vn 0.634630 -0.620197 0.461086
vn 0.634630 -0.620197 0.461086
vn 0.461086 -0.620197 0.634630
vn 0.461086 -0.620197 0.634630
vn 0.242407 -0.620197 0.746053
vn 0.242407 -0.620197 0.746052
vn -0.000000 -0.620197 0.784446
vn 0.000000 -0.620197 0.784446
vn -0.242407 -0.620197 0.746052
vn -0.242407 -0.620197 0.746052
vn -0.461086 -0.620197 0.634630
vn -0.461086 -0.620197 0.634630
vn -0.634630 -0.620197 0.461086
vn -0.634630 -0.620197 0.461086
vn -0.746053 -0.620197 0.242407
vn -0.746053 -0.620197 0.242407
vn -0.784446 -0.620197 0.000000
vn -0.784446 -0.620197 0.000000
vn -0.746053 -0.620197 -0.242407
vn -0.746053 -0.620197 -0.242407
vn -0.634631 -0.620197 -0.461085
vn -0.634631 -0.620197 -0.461085
vn -0.461086 -0.620197 -0.634630
vn -0.461086 -0.620197 -0.634630
vn -0.242407 -0.620197 -0.746052
vn -0.242407 -0.620197 -0.746052
vn -0.000000 -0.620197 -0.784446
vn -0.000000 -0.620197 -0.784446
vn 0.242407 -0.620197 -0.746052
vn 0.242407 -0.620197 -0.746052
vn 0.461085 -0.620197 -0.634630
vn 0.461086 -0.620197 -0.634630
vn 0.634630 -0.620197 -0.461086
vn 0.634630 -0.620197 -0.461086
vn 0.746052 -0.620197 -0.242406
vn 0.746052 -0.620197 -0.242406
vn 0.000000 -1.000000 0.000000
vn 0.000000 -1.000000 0.000000
vn 0.000000 -1.000000 0.000000
vn 0.000000 -1.000000 0.000000
vn 0.000000 -1.000000 0.000000
vn 0.000000 -1.000000 0.000000
vn 0.000000 -1.000000 0.000000
vn 0.000000 -1.000000 0.000000
vn 0.000000 -1.000000 0.000000
vn 0.000000 -1.000000 0.000000
vn 0.000000 -1.000000 0.000000
vn 0.000000 -1.000000 0.000000
vn 0.000000 -1.000000 0.000000
vn 0.000000 -1.000000 0.000000
vn 0.000000 -1.000000 0.000000
vn 0.000000 -1.000000 -0.000000
vn 0.000000 -1.000000 -0.000000
vn 0.000000 -1.000000 -0.000000
vn 0.000000 -1.000000 -0.000002
vn 0.000000 -1.000000 -0.000002
vn 0.000000 -1.000000 -0.000002
vn 0.000000 -1.000000 0.000003
vn 0.000000 -1.000000 0.000003
vn 0.000000 -1.000000 0.000003
vn 0.000000 -1.000000 0.000000
vn 0.000000 -1.000000 0.000000
vn 0.000000 -1.000000 0.000000
vn 0.000000 -1.000000 0.000000
vn 0.000000 -1.000000 0.000000
vn 0.000000 -1.000000 0.000000
vn 0.000000 -1.000000 0.000000
vn 0.000000 -1.000000 0.000000
vn 0.000000 -1.000000 0.000000
vn 0.000000 -1.000000 0.000000
vn 0.000000 -1.000000 0.000000
vn 0.000000 -1.000000 0.000000
vn 0.000000 -1.000000 0.000000
vn 0.000000 -1.000000 0.000000
vn 0.000000 -1.000000 0.000000
vn 0.000000 -1.000000 0.000000
vn 0.000000 -1.000000 0.000000
vn 0.000000 -1.000000 0.000000
vn 0.000000 -1.000000 0.000000
vn 0.000000 -1.000000 0.000000
vn 0.000000 -1.000000 0.000000
vn 0.000000 -1.000000 -0.000000
vn 0.000000 -1.000000 -0.000000
vn 0.000000 -1.000000 -0.000000
vn 0.000000 -1.000000 0.000000
vn 0.000000 -1.000000 0.000000
vn 0.000000 -1.000000 0.000000
vn 0.000000 -1.000000 0.000000
vn 0.000000 -1.000000 0.000000
vn 0.000000 -1.000000 0.000000
vn 0.000000 -1.000000 0.000000
vn 0.000000 -1.000000 0.000000
vn 0.000000 -1.000000 0.000000
vn 0.000000 -1.000000 0.000000
vn 0.000000 -1.000000 0.000000
vn 0.000000 -1.000000 0.000000
s 1
g pCylinder6 group4
usemtl initialShadingGroup
f 1/21/1 2/22/2 22/43/3 21/42/4
f 2/22/2 3/23/5 23/44/6 22/43/3
f 3/23/5 4/24/7 24/45/8 23/44/6
f 4/24/7 5/25/9 25/46/10 24/45/8
f 5/25/9 6/26/11 26/47/12 25/46/10
f 6/26/11 7/27/13 27/48/14 26/47/12
f 7/27/13 8/28/15 28/49/16 27/48/14
f 8/28/15 9/29/17 29/50/18 28/49/16
f 9/29/17 10/30/19 30/51/20 29/50/18
f 10/30/19 11/31/21 31/52/22 30/51/20
f 11/31/21 12/32/23 32/53/24 31/52/22
f 12/32/23 13/33/25 33/54/26 32/53/24
f 13/33/25 14/34/27 34/55/28 33/54/26
f 14/34/27 15/35/29 35/56/30 34/55/28
f 15/35/29 16/36/31 36/57/32 35/56/30
f 16/36/31 17/37/33 37/58/34 36/57/32
f 17/37/33 18/38/35 38/59/36 37/58/34
f 18/38/35 19/39/37 39/60/38 38/59/36
f 19/39/37 20/40/39 40/61/40 39/60/38
f 20/40/39 1/41/1 21/62/4 40/61/40
s 2
f 21/81/41 22/80/42 41/83/43
f 22/80/42 23/79/44 41/83/43
f 23/79/44 24/78/45 41/83/43
f 24/78/45 25/77/46 41/83/43
f 25/77/46 26/76/47 41/83/43
f 26/76/47 27/75/48 41/83/43
f 27/75/48 28/74/49 41/83/43
f 28/74/49 29/73/50 41/83/43
f 29/73/50 30/72/51 41/83/43
f 30/72/51 31/71/52 41/83/43
f 31/71/52 32/70/53 41/83/43
f 32/70/53 33/69/54 41/83/43
f 33/69/54 34/68/55 41/83/43
f 34/68/55 35/67/56 41/83/43
f 35/67/56 36/66/57 41/83/43
f 36/66/57 37/65/58 41/83/43
f 37/65/58 38/64/59 41/83/43
f 38/64/59 39/63/60 41/83/43
f 39/63/60 40/82/61 41/83/43
f 40/82/61 21/81/41 41/83/43
s 3
f 20/20/62 19/19/63 60/102/64 61/103/65
f 19/19/63 18/18/66 59/101/67 60/102/64
f 18/18/66 17/17/68 58/100/69 59/101/67
f 17/17/68 16/16/70 57/99/71 58/100/69
f 16/16/70 15/15/72 56/98/73 57/99/71
f 15/15/72 14/14/74 55/97/75 56/98/73
f 14/14/74 13/13/76 54/96/77 55/97/75
f 13/13/76 12/12/78 53/95/79 54/96/77
f 12/12/78 11/11/80 52/94/81 53/95/79
f 11/11/80 10/10/82 51/93/83 52/94/81
f 10/10/82 9/9/84 50/92/85 51/93/83
f 9/9/84 8/8/86 49/91/87 50/92/85
f 8/8/86 7/7/88 48/90/89 49/91/87
f 7/7/88 6/6/90 47/89/91 48/90/89
f 6/6/90 5/5/92 46/88/93 47/89/91
f 5/5/92 4/4/94 45/87/95 46/88/93
f 4/4/94 3/3/96 44/86/97 45/87/95
f 3/3/96 2/2/98 43/85/99 44/86/97
f 2/2/98 1/1/100 42/84/101 43/85/99
f 1/1/100 20/20/62 61/103/65 42/84/101
s off
f 61/104/102 60/105/103 62/106/104
f 60/107/105 59/108/106 62/109/107
f 59/110/108 58/111/109 62/112/110
f 58/113/111 57/114/112 62/115/113
f 57/116/114 56/117/115 62/118/116
f 56/119/117 55/120/118 62/121/119
f 55/122/120 54/123/121 62/124/122
f 54/125/123 53/126/124 62/127/125
f 53/128/126 52/129/127 62/130/128
f 52/131/129 51/132/130 62/133/131
f 51/134/132 50/135/133 62/136/134
f 50/137/135 49/138/136 62/139/137
f 49/140/138 48/141/139 62/142/140
f 48/143/141 47/144/142 62/145/143
f 47/146/144 46/147/145 62/148/146
f 46/149/147 45/150/148 62/151/149
f 45/152/150 44/153/151 62/154/152
f 44/155/153 43/156/154 62/157/155
f 43/158/156 42/159/157 62/160/158
f 42/161/159 61/162/160 62/163/161
